Coordinates
nRows=308
nColumns=2
inDegrees=yes
endheader
time	ankle_angle_r	
2.72765	 -4.211426	
2.76091	 -4.257202	
2.79418	 -4.226685	
2.82744	 -4.226685	
2.8607	 -4.302979	
2.89397	 -4.241943	
2.92723	 -4.257202	
2.9605	 -4.394531	
2.99376	 -4.287720	
3.02702	 -4.348755	
3.06029	 -4.364014	
3.09355	 -4.333496	
3.12682	 -4.287720	
3.16008	 -4.379272	
3.19334	 -4.241943	
3.22661	 -4.226685	
3.25987	 -4.364014	
3.29314	 -4.318237	
3.3264	 -4.318237	
3.35966	 -4.425049	
3.39293	 -4.257202	
3.42619	 -4.287720	
3.45946	 -4.287720	
3.49272	 -4.226685	
3.52598	 -4.287720	
3.55925	 -4.287720	
3.59251	 -4.241943	
3.62578	 -4.272461	
3.65904	 -4.302979	
3.6923	 -4.241943	
3.72557	 -4.302979	
3.75883	 -4.302979	
3.7921	 -4.226685	
3.82536	 -4.318237	
3.85862	 -4.287720	
3.89189	 -4.241943	
3.92515	 -4.318237	
3.95842	 -4.318237	
3.99168	 -4.257202	
4.02494	 -4.318237	
4.05821	 -4.302979	
4.09147	 -4.257202	
4.12474	 -4.318237	
4.158	 -4.302979	
4.19126	 -4.287720	
4.22453	 -4.302979	
4.25779	 -4.379272	
4.29106	 -4.257202	
4.32432	 -4.409790	
4.35758	 -4.394531	
4.39085	 -4.302979	
4.42411	 -4.364014	
4.45738	 -4.364014	
4.49064	 -4.302979	
4.5239	 -4.440308	
4.55717	 -4.409790	
4.59043	 -4.364014	
4.6237	 -4.440308	
4.65696	 -4.440308	
4.69022	 -4.333496	
4.72349	 -4.470825	
4.75675	 -4.318237	
4.79002	 -4.409790	
4.82328	 -4.409790	
4.85654	 -4.318237	
4.88981	 -4.348755	
4.92307	 -4.409790	
4.95634	 -4.379272	
4.9896	 -4.379272	
5.02286	 -4.348755	
5.05613	 -4.302979	
5.08939	 -4.348755	
5.12266	 -4.409790	
5.15592	 -4.364014	
5.18918	 -4.318237	
5.22245	 -4.425049	
5.25571	 -4.302979	
5.28898	 -4.364014	
5.32224	 -4.379272	
5.3555	 -4.302979	
5.38877	 -4.333496	
5.42203	 -4.364014	
5.4553	 -4.302979	
5.48856	 -4.302979	
5.52182	 -4.348755	
5.55509	 -4.333496	
5.58835	 -4.302979	
5.62162	 -4.409790	
5.65488	 -4.318237	
5.68814	 -4.318237	
5.72141	 -4.425049	
5.75467	 -4.409790	
5.78794	 -4.348755	
5.8212	 -4.394531	
5.85446	 -4.318237	
5.88773	 -4.364014	
5.92099	 -4.425049	
5.95426	 -4.394531	
5.98752	 -4.394531	
6.02078	 -4.440308	
6.05405	 -4.348755	
6.08731	 -4.455566	
6.12058	 -4.364014	
6.15384	 -4.394531	
6.1871	 -4.455566	
6.22037	 -4.364014	
6.25363	 -4.333496	
6.2869	 -4.333496	
6.32016	 -4.364014	
6.35342	 -4.287720	
6.38669	 -4.364014	
6.41995	 -4.333496	
6.45322	 -4.241943	
6.48648	 -4.302979	
6.51974	 -4.318237	
6.55301	 -4.226685	
6.58627	 -4.318237	
6.61954	 -4.348755	
6.6528	 -4.257202	
6.68606	 -4.318237	
6.71933	 -4.348755	
6.75259	 -4.226685	
6.78586	 -4.302979	
6.81912	 -4.333496	
6.85238	 -4.241943	
6.88565	 -4.302979	
6.91891	 -4.318237	
6.95218	 -4.241943	
6.98544	 -4.257202	
7.0187	 -4.287720	
7.05197	 -4.257202	
7.08523	 -4.287720	
7.1185	 -4.241943	
7.15176	 -4.241943	
7.18502	 -4.272461	
7.21829	 -4.241943	
7.25155	 -4.226685	
7.28482	 -4.318237	
7.31808	 -4.226685	
7.35134	 -4.287720	
7.38461	 -4.364014	
7.41787	 -4.272461	
7.45114	 -4.333496	
7.4844	 -4.348755	
7.51766	 -4.257202	
7.55093	 -4.318237	
7.58419	 -4.379272	
7.61746	 -4.241943	
7.65072	 -4.333496	
7.68398	 -4.394531	
7.71725	 -4.272461	
7.75051	 -4.272461	
7.78378	 -4.409790	
7.81704	 -4.379272	
7.8503	 -4.318237	
7.88357	 -4.364014	
7.91683	 -4.287720	
7.9501	 -4.272461	
7.98336	 -4.364014	
8.01662	 -4.379272	
8.04989	 -4.348755	
8.08315	 -4.394531	
8.11642	 -4.364014	
8.14968	 -4.364014	
8.18294	 -4.409790	
8.21621	 -4.379272	
8.24947	 -4.440308	
8.28274	 -4.455566	
8.316	 -4.348755	
8.34926	 -4.470825	
8.38253	 -4.425049	
8.41579	 -4.318237	
8.44906	 -4.425049	
8.48232	 -4.440308	
8.51558	 -4.302979	
8.54885	 -4.364014	
8.58211	 -4.333496	
8.61538	 -4.272461	
8.64864	 -4.333496	
8.6819	 -4.333496	
8.71517	 -4.241943	
8.74843	 -4.318237	
8.7817	 -4.318237	
8.81496	 -4.241943	
8.84822	 -4.302979	
8.88149	 -4.318237	
8.91475	 -4.272461	
8.94802	 -4.302979	
8.98128	 -4.348755	
9.01454	 -4.272461	
9.04781	 -4.302979	
9.08107	 -4.302979	
9.11434	 -4.257202	
9.1476	 -4.302979	
9.18086	 -4.302979	
9.21413	 -4.241943	
9.24739	 -4.302979	
9.28066	 -4.302979	
9.31392	 -4.241943	
9.34718	 -4.318237	
9.38045	 -4.272461	
9.41371	 -4.257202	
9.44698	 -4.287720	
9.48024	 -4.257202	
9.5135	 -4.272461	
9.54677	 -4.348755	
9.58003	 -4.287720	
9.6133	 -4.257202	
9.64656	 -4.348755	
9.67982	 -4.333496	
9.71309	 -4.302979	
9.74635	 -4.348755	
9.77962	 -4.333496	
9.81288	 -4.364014	
9.84614	 -4.440308	
9.87941	 -4.379272	
9.91267	 -4.333496	
9.94594	 -4.364014	
9.9792	 -4.318237	
10.0125	 -4.333496	
10.0457	 -4.440308	
10.079	 -4.364014	
10.1123	 -4.364014	
10.1455	 -4.379272	
10.1788	 -4.364014	
10.212	 -4.364014	
10.2453	 -4.348755	
10.2786	 -4.348755	
10.3118	 -4.333496	
10.3451	 -4.379272	
10.3784	 -4.287720	
10.4116	 -4.364014	
10.4449	 -4.379272	
10.4782	 -4.302979	
10.5114	 -4.364014	
10.5447	 -4.470825	
10.578	 -4.409790	
10.6112	 -4.379272	
10.6445	 -4.470825	
10.6777	 -4.394531	
10.711	 -4.379272	
10.7443	 -4.394531	
10.7775	 -4.272461	
10.8108	 -4.333496	
10.8441	 -4.318237	
10.8773	 -4.257202	
10.9106	 -4.333496	
10.9439	 -4.318237	
10.9771	 -4.272461	
11.0104	 -4.333496	
11.0436	 -4.302979	
11.0769	 -4.241943	
11.1102	 -4.302979	
11.1434	 -4.333496	
11.1767	 -4.272461	
11.21	 -4.318237	
11.2432	 -4.318237	
11.2765	 -4.257202	
11.3098	 -4.318237	
11.343	 -4.333496	
11.3763	 -4.257202	
11.4096	 -4.302979	
11.4428	 -4.318237	
11.4761	 -4.241943	
11.5093	 -4.287720	
11.5426	 -4.318237	
11.5759	 -4.241943	
11.6091	 -4.302979	
11.6424	 -4.318237	
11.6757	 -4.272461	
11.7089	 -4.394531	
11.7422	 -4.257202	
11.7755	 -4.318237	
11.8087	 -4.364014	
11.842	 -4.302979	
11.8752	 -4.302979	
11.9085	 -4.364014	
11.9418	 -4.287720	
11.975	 -4.333496	
12.0083	 -4.379272	
12.0416	 -4.318237	
12.0748	 -4.364014	
12.1081	 -4.394531	
12.1414	 -4.348755	
12.1746	 -4.364014	
12.2079	 -4.409790	
12.2412	 -4.348755	
12.2744	 -4.333496	
12.3077	 -4.394531	
12.3409	 -4.302979	
12.3742	 -4.318237	
12.4075	 -4.394531	
12.4407	 -4.379272	
12.474	 -4.379272	
12.5073	 -4.409790	
12.5405	 -4.364014	
12.5738	 -4.318237	
12.6071	 -4.425049	
12.6403	 -4.379272	
12.6736	 -4.318237	
12.7068	 -4.409790	
12.7401	 -4.333496	
12.7734	 -4.302979	
12.8066	 -4.394531	
12.8399	 -4.394531	
12.8732	 -4.302979	
12.9064	 -4.409790	
12.9397	 -4.302979	
